<?xml version="1.0" encoding="UTF-8" standalone="no"?>
<svg xmlns="http://www.w3.org/2000/svg"
     xmlns:xlink="http://www.w3.org/1999/xlink"
     id="svg8"
     version="1.1"
     viewBox="0 0 132.71306 21.625584"
     height="21.625584mm"
     width="132.71307mm">
    <defs
            id="defs2">
        <linearGradient
                id="linearGradient918">
            <stop
                    id="stop914"
                    offset="0"
                    style="stop-color:#4ea45b;stop-opacity:1"/>
            <stop
                    id="stop916"
                    offset="1"
                    style="stop-color:#80e498;stop-opacity:1"/>
        </linearGradient>
        <linearGradient
                gradientTransform="matrix(0.24787196,0,0,0.24787196,40.643723,67.441087)"
                gradientUnits="userSpaceOnUse"
                y2="86.708412"
                x2="56.838287"
                y1="25.318918"
                x1="111.39603"
                id="linearGradient920"
                xlink:href="#linearGradient918"/>
    </defs>
    <g
            transform="translate(-50.815398,-70.383851)"
            id="layer1">
        <path
                style="fill:url(#linearGradient920);fill-opacity:1;stroke:none"
                id="Selection-0"
                fill="none"
                stroke="#000000"
                stroke-width="0.0456701"
                d="m 61.21766,71.421058 c 0,0 1.141743,0.307029 1.141743,0.307029 0.576812,0.173683 1.350006,0.509682 1.872466,0.808811 2.180733,1.247253 3.792879,3.069461 4.881645,5.323744 0.192286,0.397772 0.364901,0.814745 0.507395,1.233086 0,0 0.319666,0.959059 0.319666,0.959059 0.508311,-0.372203 0.682309,-1.131709 0.685051,-1.735434 9.28e-4,-0.333866 0.0083,-0.873684 -0.08174,-1.187414 -0.11008,-0.385937 -0.639377,-1.198381 -0.877324,-1.552782 -1.242669,-1.851911 -3.210582,-3.201474 -5.343368,-3.809766 -0.55443,-0.158015 -1.439051,-0.339366 -2.009467,-0.3462 0,0 -0.685045,-0.03734 -0.685045,-0.03734 0,0 -0.41103,0.03734 -0.41103,0.03734 z m -7.626859,4.201637 c 0.348917,-0.04634 0.449393,-0.09101 0.822059,-0.09134 1.386079,-0.0016 2.684928,0.567188 3.927601,1.128008 1.389736,0.626627 2.768962,1.31166 4.110288,2.037363 1.005189,0.543452 2.178448,1.156344 3.242554,1.557782 0.60375,0.228022 1.26734,0.436609 1.918135,0.43751 0,0 0.411025,0 0.411025,0 0.439344,-0.0033 0.811547,-0.143348 1.233081,-0.228356 -0.0598,-0.710168 -0.66404,-2.083 -0.993314,-2.740197 -1.218923,-2.431466 -3.475474,-4.459661 -6.039837,-5.374882 -0.756745,-0.270359 -1.846427,-0.55262 -2.648844,-0.562187 0,0 -0.411033,0 -0.411033,0 -0.464461,0.0011 -0.763596,0.14068 -1.18741,0.310363 -0.854942,0.342999 -1.444996,0.674098 -2.192151,1.21575 -0.574989,0.41694 -1.096075,0.90472 -1.55871,1.442238 -0.21372,0.248357 -0.506025,0.568589 -0.633444,0.86775 z m 15.847429,5.663043 c -0.661759,0.187351 -0.676829,0.313696 -1.461437,0.31603 0,0 -0.730719,0 -0.730719,0 -0.621108,-0.06434 -1.847796,-0.369902 -2.420497,-0.611058 0,0 -0.456698,-0.241023 -0.456698,-0.241023 0,0 -1.598443,-0.865917 -1.598443,-0.865917 0,0 -1.644118,-0.93349 -1.644118,-0.93349 0,0 -1.963802,-1.058168 -1.963802,-1.058168 -0.971397,-0.525184 -2.409081,-1.231251 -3.470903,-1.497977 -0.495978,-0.124345 -0.912027,-0.14468 -1.415763,-0.181684 0,0 -0.59371,-0.04167 -0.59371,-0.04167 -0.138846,0.0016 -0.368552,0.01 -0.48501,0.09034 -0.167616,0.114344 -0.44985,0.751272 -0.538905,0.959992 -0.404179,0.944457 -0.790546,2.25745 -0.802877,3.288216 0,0 -0.03744,0.593724 -0.03744,0.593724 -0.012,0.165683 0.02233,0.253357 0.03334,0.411006 0.0097,0.136347 -0.012,0.286028 0.0507,0.41104 0.09774,0.195351 0.541649,0.530684 0.729803,0.674065 0.746249,0.569987 1.604385,0.992895 2.466174,1.354596 1.135809,0.476779 2.306781,0.786876 3.516571,1.00473 0,0 1.689789,0.20902 1.689789,0.20902 0,0 0.822052,0.04567 0.822052,0.04567 1.502081,0.01668 2.882223,-0.168682 4.338632,-0.53115 1.045388,-0.260025 2.094871,-0.483647 3.105552,-0.86545 0.18862,-0.07068 0.958609,-0.372669 1.052688,-0.504649 0.08678,-0.127345 0.01233,-0.414239 0,-0.564954 -0.03066,-0.469011 -0.04704,-1.01113 -0.184983,-1.461407 z m 1.598443,-2.694492 c -0.0365,0.448009 -0.255759,1.112507 -0.470856,1.507078 -0.101375,0.185351 -0.378149,0.540285 -0.419249,0.685032 -0.04747,0.169017 0.03833,0.498281 0.0612,0.685066 0.06668,0.551686 0.09818,0.854949 0.09818,1.415769 0.44848,-0.300695 1.017527,-0.912487 1.120285,-1.46144 0,0 -0.06667,-1.370098 -0.06667,-1.370098 -0.03134,-0.342499 -0.158015,-1.183747 -0.322898,-1.461407 z m 0.274025,3.836235 c 0,0 -0.568128,0.776374 -0.568128,0.776374 0,0 -0.39185,0.456711 -0.39185,0.456711 0,0 -0.142949,0.86775 -0.142949,0.86775 0,0 -0.175814,0.959058 -0.175814,0.959058 0,0 0.424725,-0.07434 0.424725,-0.07434 0,0 0.314661,-0.656262 0.314661,-0.656262 0,0 0.442082,-1.507078 0.442082,-1.507078 0,0 0.09728,-0.822079 0.09728,-0.822079 z M 51.9467,82.701507 c 0.296395,2.235981 1.514868,4.371955 3.196883,5.852594 0.414687,0.365368 1.41714,1.128042 1.918135,1.311627 0.466745,0.17135 1.760115,0.286028 2.283492,0.280025 0.322898,-0.0033 0.952215,-0.09901 1.278753,-0.164349 0,0 1.233085,-0.28736 1.233085,-0.28736 0.724323,-0.239357 1.940967,-0.906554 2.648848,-1.27189 0,0 3.288224,-1.757366 3.288224,-1.757366 0,0 1.050409,-0.62936 1.050409,-0.62936 0.120112,-0.07201 0.435234,-0.240358 0.509222,-0.337501 0.07625,-0.100009 0.105044,-0.312364 0.130146,-0.438873 0.07124,-0.357135 0.133812,-0.731171 0.137012,-1.096073 0,0 -0.68505,0.300362 -0.68505,0.300362 -0.962721,0.363068 -1.971111,0.55352 -2.96854,0.790077 -1.508928,0.358068 -2.212248,0.540283 -3.79059,0.648993 0,0 -0.548039,0.04167 -0.548039,0.04167 0,0 -1.096079,0 -1.096079,0 0,0 -0.548036,-0.04167 -0.548036,-0.04167 -1.371922,-0.09434 -2.678534,-0.353965 -3.973275,-0.828478 -0.902433,-0.331032 -1.942796,-0.863616 -2.740186,-1.398401 0,0 -0.776391,-0.558087 -0.776391,-0.558087 0,0 -0.548033,-0.41604 -0.548036,-0.41604 z m 17.719886,3.973282 c 0.228822,-0.137012 0.376776,-0.388637 0.456697,-0.639396 -0.367182,0.07934 -0.379055,0.298695 -0.456697,0.639396 z M 59.299539,90.69374 c 0.339783,0.156681 1.386537,0.273027 1.781125,0.274025 0,0 0.685045,0.04167 0.685045,0.04167 1.673801,-0.09501 2.874916,-0.371736 4.384302,-1.126208 0.443913,-0.222355 1.186957,-0.658095 1.539531,-0.991497 0.310094,-0.293693 0.730259,-0.921153 0.940334,-1.303389 0.170353,-0.309698 0.346181,-0.616559 0.443005,-0.959093 -0.279062,0.108344 -0.690987,0.45351 -0.959069,0.63846 0,0 -1.826792,1.160946 -1.826792,1.160946 -1.381057,0.817478 -2.968998,1.48701 -4.521311,1.89438 -0.73391,0.192687 -1.710337,0.370837 -2.46617,0.370837 z m 10.32138,-3.927643 c 0,0 0,0.04567 0,0.04567 0,0 0.0457,-0.04567 0.0457,-0.04567 0,0 -0.0457,0 -0.0457,0 z"/>
        <g
                id="text924"
                style="fill:#4ea45b;fill-opacity:1;stroke:none;stroke-width:0.309538;stroke-miterlimit:4;stroke-dasharray:none"
                transform="matrix(0.95900919,0,0,1.308451,-9.8243288,-10.770464)"
                aria-label="THYME">
            <path d="m 91.467738,74.417931 h 1.063132 v -7.565545 h 2.682555 v -0.939512 h -6.440603 v 0.939512 h 2.694916 z"/>
            <path d="m 97.868393,74.417931 h 1.063132 v -3.819859 h 4.462685 v 3.819859 h 1.05077 v -8.505057 h -1.05077 v 3.745686 h -4.462685 v -3.745686 h -1.063132 z"/>
            <path d="m 109.94803,74.417931 h 1.06314 v -3.251207 l 3.0905,-5.25385 h -1.10022 l -2.44768,4.190718 h -0.0865 l -2.46004,-4.190718 h -1.1373 l 3.07813,5.25385 z"/>
            <path d="m 116.52601,74.417931 h 1.00132 V 67.61883 h 0.0494 l 2.90507,6.799101 h 0.7788 l 2.91743,-6.799101 h 0.0495 v 6.799101 h 1.03841 v -8.505057 h -1.43399 l -2.90507,6.774377 h -0.0618 L 117.96,65.912874 h -1.43399 z"/>
            <path d="m 128.76423,74.417931 h 5.53818 v -0.914788 h -4.47505 V 70.58571 h 3.88167 v -0.914788 h -3.88167 v -2.84326 h 4.47505 v -0.914788 h -5.53818 z"/>
        </g>
        <g
                id="text928"
                transform="matrix(0.95900919,0,0,1.308451,-9.8243288,-10.770464)"
                aria-label="WIZARDS">
            <path d="m 141.54633,74.417915 h 1.26092 l 2.05209,-6.885634 h 0.0495 l 2.06445,6.885634 h 1.26093 l 2.31169,-8.505056 h -1.06313 l -1.84194,7.120512 h -0.0742 l -2.10154,-7.120512 h -1.11258 l -2.07682,7.120512 h -0.0618 l -1.90375,-7.120512 h -1.08785 z"/>
            <path d="m 153.26573,74.417915 h 1.06313 v -8.505056 h -1.06313 z"/>
            <path d="m 157.25734,74.417915 h 6.20572 v -0.902426 h -4.88299 l 4.82118,-6.749652 v -0.852978 h -6.00793 v 0.914788 h 4.66048 l -4.79646,6.724928 z"/>
            <path d="m 165.48004,74.417915 h 1.07549 l 0.8777,-2.324056 h 3.83222 l 0.87771,2.324056 h 1.10021 l -3.21412,-8.505056 h -1.33509 z m 2.27461,-3.251206 1.55761,-4.165994 h 0.0618 l 1.55761,4.165994 z"/>
            <path d="m 182.25936,74.417915 -1.44635,-3.535532 c 1.19911,-0.358498 1.32273,-1.495802 1.32273,-2.41059 0,-1.433992 -0.23487,-2.558934 -2.3735,-2.558934 h -3.90639 v 8.505056 h 1.06313 v -3.374826 h 2.67019 0.19779 l 1.3351,3.374826 z m -2.94215,-4.289614 h -2.39823 v -3.300654 h 2.48476 c 1.56998,0 1.66887,0.543928 1.66887,1.644146 0,1.087856 -0.12362,1.656508 -1.7554,1.656508 z"/>
            <path d="m 185.31745,74.417915 h 2.70728 c 3.46136,0 3.62206,-0.642824 3.62206,-4.252528 0,-3.609704 -0.1607,-4.252528 -3.62206,-4.252528 h -2.70728 z m 1.06313,-0.914788 v -6.67548 h 1.47108 c 2.5713,0 2.74436,0.04945 2.74436,3.33774 0,3.300654 -0.13598,3.33774 -2.74436,3.33774 z"/>
            <path d="m 197.70653,74.516811 c 1.70596,0 2.86798,-0.173068 2.86798,-2.521848 0,-0.6181 -0.0371,-1.063132 -0.17306,-1.396906 -0.27197,-0.704634 -0.87771,-0.840616 -1.74305,-0.92715 l -2.07681,-0.234878 c -0.92715,-0.0989 -1.05077,-0.284326 -1.05077,-1.273286 0,-0.543928 0.0371,-0.92715 0.40794,-1.149666 0.32142,-0.210154 0.85298,-0.284326 1.76777,-0.284326 0.77881,0 1.80485,0.06181 2.44768,0.160706 v -0.877702 c -0.58102,-0.111258 -1.68124,-0.197792 -2.63311,-0.197792 -1.91611,0 -3.05341,0.30905 -3.05341,2.373504 0,1.285648 0.21015,2.064454 1.80485,2.249884 l 2.10154,0.234878 c 1.07549,0.111258 1.1373,0.271964 1.1373,1.396906 0,0.568652 -0.0371,1.038408 -0.39558,1.260924 -0.37086,0.210154 -0.85298,0.271964 -1.71832,0.271964 -0.66755,0 -1.81721,-0.06181 -2.68255,-0.160706 v 0.902426 c 0.84061,0.0989 2.06445,0.173068 2.9916,0.173068 z"/>
        </g>
    </g>
</svg>
